# xmcd
#
# Track frame offsets:
#	150
#	19285
#	34160
#	49535
#	66975
#	87942
#	105242
#	122987
#	139707
#	153465
#	175657
#	190817
#	207100
#	224160
#
# Disc length: 3247 seconds
#
# Revision: 4
# Processed by: cddbd v1.5.2PL0 Copyright (c) Steve Scherf et al.
# Submitted via: audiograbber 1.83.01
#
DISCID=c60cad0e
DTITLE=Tim Mcgraw - A Place In The Sun
DYEAR=1999
DGENRE=Country
TTITLE0=The Trouble With Never
TTITLE1=Seventeen
TTITLE2=She'll Have You Back
TTITLE3=Somebody Must Be Prayin' For Me
TTITLE4=My Best Friend
TTITLE5=Senorita Margarita
TTITLE6=Some Things Never Change
TTITLE7=You Don't Love Me Anymore
TTITLE8=Something Like That
TTITLE9=Please Remember Me
TTITLE10=Carry On
TTITLE11=My Next Thirty Years
TTITLE12=Eyes Of A Woman
TTITLE13=A Place In The Sun
EXTD=YEAR: 1999
EXTT0=
EXTT1=
EXTT2=
EXTT3=
EXTT4=
EXTT5=
EXTT6=
EXTT7=Corrected spelling
EXTT8=
EXTT9=
EXTT10=
EXTT11=
EXTT12=
EXTT13=
PLAYORDER=
